<?xml version="1.0" encoding="utf-8"?>
<!-- Svg Vector Icons : http://www.onlinewebfonts.com/icon -->
<!DOCTYPE svg PUBLIC "-//W3C//DTD SVG 1.1//EN" "http://www.w3.org/Graphics/SVG/1.1/DTD/svg11.dtd">
<svg version="1.1" xmlns="http://www.w3.org/2000/svg" xmlns:xlink="http://www.w3.org/1999/xlink" x="0px" y="0px" viewBox="0 0 256 256" enable-background="new 0 0 256 256" xml:space="preserve">
<metadata> Svg Vector Icons : http://www.onlinewebfonts.com/icon </metadata>
<g><g><g><path fill="#000000" d="M121.7,10.9c-13.3,3.6-21.6,17.4-18.2,30.4c2.3,8.6,9.1,15.9,17.3,18.1l3,0.8v17.3v17.2l-2.2,0.4c-6.5,1.1-14.5,5.6-19.2,11.1c-2.4,2.7-2.7,2.9-3.8,2.3c-0.7-0.3-1.3-0.5-1.4-0.4c-0.4,0.4-3.4,6.8-3.4,7.2c0,0.3,0.6,0.7,1.2,1l1.3,0.6l-1,3.9c-1.4,5.2-1.1,11.8,0.8,17.5c1,3.2,1.2,4.3,0.7,4.6c-0.4,0.2-10.1,6.4-21.7,13.8L54,170.2l-2.4-2.1c-14-12.3-36.1-5.2-40.9,13c-3.4,13.2,5,27,18.4,30.6c13.6,3.5,27.9-5.6,30.9-19.6c0.7-3.5,0.4-9.5-0.7-12.6l-0.8-2.1l19.8-12.6c10.9-6.9,20.7-13.2,21.9-13.9l2.1-1.2l1.4,1.6c3.8,4.2,11.4,8.5,17.1,9.6l3.1,0.6v2.3v2.3h4.2h4.2v-2.3v-2.3l3.2-0.7c5.8-1.3,13.1-5.4,16.9-9.6l1.4-1.6l2.1,1.2c1.2,0.7,11,7,21.9,13.9l19.8,12.6l-0.8,2.1c-0.4,1.2-0.9,3.8-1.1,5.8c-1.3,16.9,14.9,30.6,31.2,26.3c13.5-3.5,21.9-17.3,18.4-30.6c-3.5-13.5-17.3-21.9-30.5-18.4c-4,1.1-7.5,2.8-10.4,5.4l-2.4,2.1l-21.1-13.4c-11.5-7.4-21.3-13.6-21.7-13.9c-0.5-0.3-0.4-1.3,0.8-4.6c1.3-3.6,1.4-4.9,1.4-10.2c-0.1-4-0.3-6.9-0.9-8.6c-0.8-2.5-0.8-2.5,0.5-3.1c0.7-0.3,1.3-0.8,1.3-1.1c0-0.4-3-6.7-3.4-7.2c-0.1-0.1-0.7,0.1-1.4,0.4c-1.1,0.6-1.4,0.4-3.8-2.3c-4.7-5.5-12.7-10.1-19.2-11.1l-2.3-0.4V77.5V60.3l2.4-0.6c8.4-2.1,15.5-9.5,17.9-18.2C157.2,23.3,139.8,6.1,121.7,10.9z M135.1,20.2c3.3,1.6,6.5,4.7,8.2,8.1c1,2.1,1.3,3.5,1.3,7.1c0.1,4.1-0.1,4.7-1.7,7.8c-2,3.7-3.6,5.3-7.6,7.4c-2.3,1.2-3.3,1.4-7.2,1.4c-3.8,0-4.9-0.2-7.2-1.4c-4-2.1-5.6-3.7-7.6-7.4c-1.6-3.1-1.8-3.7-1.7-7.8c0-3.6,0.3-5,1.3-7.1c2.2-4.5,6.5-8,11.3-9.3C126.9,18.3,132.3,18.8,135.1,20.2z M134.1,103.6c9.1,2.4,16.1,9.4,18.4,18.5c3.4,13.1-5,26.9-18.4,30.5c-13.2,3.4-27-5-30.6-18.4C98.8,116.1,116,98.9,134.1,103.6z M40.4,171.1c4,1.3,7.4,4.2,9.5,8.1c1.7,3.2,1.9,3.7,1.9,7.9c0,4.1-0.2,4.7-1.8,7.8c-2,3.7-3.6,5.3-7.6,7.4c-2.3,1.2-3.3,1.4-7.2,1.4c-4.2,0-4.7-0.2-7.9-1.9c-7.3-4-10.6-12.3-8.1-19.8C22.3,173.1,31.6,168.3,40.4,171.1z M227.8,171.9c3.3,1.6,6.5,4.7,8.2,8.1c1.1,2.2,1.3,3.4,1.3,7.1c0,4.1-0.2,4.7-1.8,7.8c-2,3.7-3.6,5.3-7.6,7.4c-2.3,1.2-3.3,1.4-7.2,1.4c-3.7,0-5-0.3-7.1-1.3c-13.7-6.7-12.5-26.1,1.8-31.3C218.8,169.9,224.4,170.3,227.8,171.9z"/><path fill="#000000" d="M21.6,61.6C9.7,65.7,6.1,80.6,15,89.4c3.4,3.4,6.6,4.7,11.6,4.7c4.8,0,8.3-1.3,11.1-4c1.6-1.6,1.7-1.6,3.3-0.8c0.9,0.5,1.7,0.8,1.9,0.8s1.2-1.7,2.2-3.7l1.8-3.7L45.2,82c-1.7-0.8-1.7-0.8-1.7-4.6c0-3.4-0.2-4.3-1.8-7.5C37.8,62.4,29.3,58.9,21.6,61.6z M30.2,69.9c5.4,2.3,6.7,9.3,2.5,13.5c-5.9,6-15.6,0.6-14.1-7.7C19.6,70.7,25.4,67.8,30.2,69.9z"/><path fill="#000000" d="M223.8,61.5c-4.2,1.4-7.4,4.3-9.4,8.3c-1.6,3.2-1.8,4.1-1.8,7.5c0,3.8,0,3.8-1.7,4.6l-1.7,0.8l1.8,3.7c1,2,2,3.7,2.2,3.7c0.2,0,1-0.4,1.9-0.8c1.6-0.8,1.6-0.8,3.3,0.8c2.8,2.7,6.3,4,11.1,4c3.5,0,4.6-0.3,6.9-1.4c4-2.1,5.6-3.7,7.6-7.4c1.6-3.1,1.8-3.7,1.7-7.8c0-5.3-1.3-8.4-4.7-11.9C236.7,61.4,229.4,59.6,223.8,61.5z M232.5,69.9c5.4,2.3,6.7,9.3,2.5,13.5c-5.9,6-15.6,0.6-14.1-7.7C221.9,70.7,227.7,67.8,232.5,69.9z"/><path fill="#000000" d="M52.1,90.2c-0.9,2-1.7,3.7-1.5,3.9c0.5,0.4,6.9,3.5,7.1,3.4c0.4-0.4,3.4-6.7,3.4-7.2c0-0.3-6.4-3.8-7-3.8C54,86.5,53.1,88.1,52.1,90.2z"/><path fill="#000000" d="M198.3,88.2c-1.7,0.9-3.3,1.7-3.4,1.8c-0.3,0.2,3.2,7.6,3.5,7.6c0.3,0,6.7-3.2,7-3.5c0.3-0.3-3.2-7.6-3.6-7.6C201.7,86.6,200.1,87.3,198.3,88.2z"/><path fill="#000000" d="M66.6,97.6l-1.8,3.7l3.2,1.6c1.7,0.8,3.4,1.6,3.7,1.6c0.5,0,3.7-5.8,3.7-6.8c0-0.4-5.7-3.7-6.6-3.7C68.6,93.9,67.6,95.5,66.6,97.6z"/><path fill="#000000" d="M183.5,95.6l-3.2,1.7l1.8,3.5c1,2,2.1,3.6,2.3,3.6c0.3,0,1.9-0.7,3.7-1.6l3.2-1.6l-1.8-3.7c-1-2.1-2.1-3.7-2.3-3.7C186.9,93.9,185.3,94.7,183.5,95.6z"/><path fill="#000000" d="M81,104.6l-1.9,3.8l3.4,1.6c1.8,0.9,3.5,1.7,3.6,1.7c0.2,0,1.1-1.6,2.1-3.7l1.8-3.7l-3.6-1.8l-3.6-1.8L81,104.6z"/><path fill="#000000" d="M169.5,102.6l-3.5,1.8l1.8,3.7c1,2.1,2,3.7,2.1,3.7c0.9,0,6.6-3.3,6.6-3.8c-0.1-0.3-0.8-2.1-1.7-3.9l-1.7-3.2L169.5,102.6z"/><path fill="#000000" d="M123.8,178.7v4.2h4.2h4.2v-4.2v-4.2H128h-4.2V178.7z"/><path fill="#000000" d="M123.8,195.6v4.2h4.2h4.2v-4.2v-4.2H128h-4.2V195.6z"/><path fill="#000000" d="M123.8,210.5c0,2.3-0.1,2.3-2.7,3.5c-3.4,1.5-6.6,4.7-8.3,8.2c-1.8,3.8-1.8,10.4,0,14.2c1.6,3.4,4.8,6.5,8.2,8.2c2.2,1.1,3.4,1.3,7.1,1.3c4.2,0,4.7-0.2,7.9-1.9c12.2-6.7,11.6-24.3-0.9-30c-2.7-1.2-2.7-1.3-2.7-3.5v-2.3H128h-4.2V210.5L123.8,210.5z M131.3,221.6c5.4,2.3,6.7,9.3,2.5,13.5c-3.4,3.4-8.3,3.4-11.7,0C115.6,228.7,122.8,218,131.3,221.6z"/></g></g></g>
</svg>